<svg xmlns="http://www.w3.org/2000/svg" viewBox="0 0 636.45 185.42"><defs><style>.cls-1{fill:#56586c;}.cls-2{font-size:37.46px;fill:#601c46;font-family:Montserrat-Regular, Montserrat;letter-spacing:0.62em;}.cls-3{letter-spacing:0.66em;}</style></defs><g id="Layer_2" data-name="Layer 2"><g id="Layer_1-2" data-name="Layer 1"><path class="cls-1" d="M79.41,0V3.09c1.26-.11,2.34-.17,3.26-.17A103.78,103.78,0,0,1,106.73,6.1Q120,9.28,131,19.77t11,30.76q0,18.22-10.14,27.33T106.22,87q-9.63,0-15.38-3.7t-5.76-7.65c5.15,3.9,8.51,6.16,10,6.79s4.1,1,7.65,1q9.45,0,16.16-8.17t6.7-26q0-24.58-14.78-32.83a64.54,64.54,0,0,0-32-8.25v94q0,10.48,11.6,17.1t11.6,13.32a14.68,14.68,0,0,1-.17,2.58,17.32,17.32,0,0,0-10.65-9.36q-7-2.16-18.22-2.15-21.84,0-34.55,10.87T25.78,156.7q0,4.14,1.29,6.13c.86,1.31,3.64,3.59,8.34,6.81-1.27.11-2.24.17-2.93.17a22.48,22.48,0,0,1-10.39-2.41q-4.74-2.4-4.73-9.29,0-8.94,10.31-19.61,9.63-9,19.25-17.72,10.48-10.5,10.49-18.59V48.34q0-7.74,3.26-20.9T71.84,8.08q-37.12,0-50.18,9.62T8.59,42.45Q8.59,60,17.88,72.1T45.55,92.47q-22.17,0-33.86-11.35T0,49.67Q0,25.61,20.2,14.35T76,3.09Z"/><path class="cls-1" d="M192.84,3.61h57.92q-15.63,6.53-15.64,19.22v80.5a21.42,21.42,0,0,0,3.35,11.07q3.36,5.56,12.29,9.35H197.83q15.63-6.87,15.64-20.42V31.25q0-9.78,2.57-14.59,3.78-4.8,6-7.55H191.29q-21.64,0-29.82,8.94t-8.16,25.09a40.54,40.54,0,0,0,6.88,23q6.87,10.32,17.53,10.31,10,0,12.37-8.76T197,59c2.17,0,3.26,1.44,3.26,4.3q0,6-6.19,11.6t-17.7,5.59q-15,0-23.29-10.66t-8.33-26.64q0-20.44,15.64-30T192.84,3.61Z"/><path class="cls-1" d="M297.86,2.23q18.72,0,24.57,6.88t16.5,22l31.46,65.83V22.34q0-7.56-5-11.77a42.74,42.74,0,0,0-11.86-7h43.31Q384.13,6.37,379.67,11a15.76,15.76,0,0,0-4.47,11.35v83.81q12.19,27.52,21.65,36.22t24.24,8.69q4.29,0,10.4-2.89a47.61,47.61,0,0,0,11.08-7.25,39.23,39.23,0,0,1-10.65,10.52q-6,3.91-17.88,3.91-25.26,0-41.59-22.62T336.7,68.64q-19.43-41.47-30.42-51.45v87.65a14.4,14.4,0,0,0,4.9,11.26,43.54,43.54,0,0,0,12.28,7.48h-43q12.54-2.76,16.75-7.14t4.21-11.6V13.23A24.25,24.25,0,0,0,294.33,8Q291,6.53,284.79,6.53q-16.67,0-24.14,9.54t-7.48,24.32q0,18,7.73,27.93t21.83,16.59q-19.43,0-28.79-11.35t-9.37-27.84q0-23.2,13.75-33.35T297.86,2.23Z"/><path class="cls-1" d="M436,3.61H549.13a49.73,49.73,0,0,0-16.84,6A79.21,79.21,0,0,0,518,20.73q-7,6.8-17.44,17.29T488.29,50.75a7.34,7.34,0,0,0-1.89,4.82q0,2.07,2.41,5.07t21.65,26.42q19.24,23.4,35.75,42.15t30.34,28.73q13.83,10,26.9,10,10.81,0,16.93-6.73a23.36,23.36,0,0,0,6.1-16.23,13,13,0,0,0-1.89-7.33c-1.27-1.9-2.58-3.77-4-5.61a3.42,3.42,0,0,1,2-3.37,8.92,8.92,0,0,1,3.87-1,8,8,0,0,1,7.47,4.47,22.7,22.7,0,0,1,2.5,11.17q0,11.52-8.68,20.2T605,172.22q-17.7,0-37.21-13.49t-39.62-34.38q-20.1-20.88-56.89-62V103.3q0,10.14,4.3,14.09a35.48,35.48,0,0,0,10.49,6.53H427.45q12.38-2.74,16.93-8.08a18.71,18.71,0,0,0,4.55-12.54V21.66q0-7.23-4.73-10.49a19,19,0,0,0-11.08-3.26q-18.57,0-28.62,8.68T394.45,43.14q0,17,7.65,29.48t25.35,17.79q-22,0-31.8-12t-9.8-30.76q0-20.11,14.78-32.06T436,3.61Zm35.23,18.05V56.2q9.12-8.93,24.32-23.54t17.88-17.54q2.65-2.91,2.66-4.46,0-2.58-3.52-3.36a49.11,49.11,0,0,0-9.88-.77h-5.16q-13.06,0-19.68,2.66T471.27,21.66Z"/><text class="cls-2" transform="translate(50.01 175.61)">P<tspan class="cls-3" x="49.93" y="0">ASSION</tspan></text></g></g></svg>